<?xml version="1.0" encoding="UTF-8"?>
<svg id="Calque_2" data-name="Calque 2" xmlns="http://www.w3.org/2000/svg" width="178.97mm" height="37.73mm" viewBox="0 0 507.3 106.94">
  <defs>
    <style>
      .cls-1 {
        fill: #1d1d1b;
      }
    </style>
  </defs>
  <path class="cls-1" d="M3.07,106.17c28.76-8.93,59.3-7.56,88.89-4.7,30.96,2.99,62.17,7.73,93.3,4.23,25.03-2.82,49.77-11.45,68.96-28.2,8.98-7.84,16.52-17.51,21.32-28.46s6.65-23.18,1.92-34c-2.34-5.35-6.6-9.88-11.93-12.33-5.6-2.58-11.78-3.11-17.83-2.12-12.8,2.09-22.57,11.66-29.18,22.28-1.69,2.72-3.2,5.54-4.6,8.42l4.66,1.26c-1.15-13.72-10.85-25.47-23.55-30.36-6.57-2.52-14.53-3.11-21.16-.52-7.53,2.94-11.79,9.79-13.98,17.29-4.51,15.48-1.18,32.57,8.51,45.39,9.03,11.96,22.04,20.22,35.61,26.17,15.16,6.65,31.39,10.58,47.91,11.65,16.84,1.09,33.55-1.11,49.75-5.7s32.62-11.33,49.16-16.29c15.45-4.64,31.29-8.12,47.31-10.06,16.06-1.94,32.34-2.39,48.46-.93s31.47,4.81,46.36,10.33c3.59,1.33,7.13,2.79,10.62,4.38,1.23.56,2.69.35,3.42-.9.63-1.07.34-2.86-.9-3.42-14.23-6.49-29.27-10.98-44.7-13.52-15.5-2.54-31.25-3.25-46.92-2.4s-31.58,3.26-47,6.87c-15.93,3.73-31.28,9.12-46.71,14.5-15.69,5.47-31.64,10.51-48.28,11.92s-31.81-.08-47.14-4.21c-14.36-3.86-28.6-9.94-40.49-19s-20.14-20.89-21.67-35.42c-.78-7.37-.02-15.27,2.97-22.1,1.33-3.04,3.21-6.01,5.92-8,3.01-2.21,6.78-3.07,10.46-3.19,12.36-.41,24.13,7.89,28.95,19.11,1.14,2.65,1.87,5.51,2.11,8.38.09,1.11.71,2.1,1.84,2.41,1.01.28,2.34-.16,2.82-1.15,5.15-10.6,12.45-21.64,23.73-26.4,9.76-4.12,22.75-3.07,29.09,6.34,5.98,8.88,4.63,20.86,1.11,30.41-3.89,10.54-10.9,19.95-19.03,27.59-17.32,16.26-40.48,25.14-63.73,28.43-30.05,4.25-60.54.09-90.48-3.01s-58.37-5.11-86.88,1.41c-3.47.79-6.9,1.72-10.3,2.77-3.06.95-1.76,5.78,1.33,4.82h0Z"/>
</svg>