<?xml version="1.0" encoding="UTF-8"?>
<svg xmlns="http://www.w3.org/2000/svg" width="101.59mm" height="111.44mm" viewBox="0 0 287.97 315.88">
  <defs>
    <style>
      .cls-1 {
        fill: #f6f6f6;
      }

      .cls-2 {
        fill: #fff;
      }

      .cls-3 {
        stroke: #1d1d1b;
        stroke-width: 8px;
      }

      .cls-3, .cls-4, .cls-5 {
        fill: none;
        stroke-miterlimit: 10;
      }

      .cls-4 {
        stroke: #dfba42;
      }

      .cls-4, .cls-5 {
        stroke-width: 12px;
      }

      .cls-5 {
        stroke: #e0ba42;
      }
    </style>
  </defs>
  <g id="Calque_1" data-name="Calque 1">
    <g>
      <polygon class="cls-3" points="111.61 136.35 142.11 189.21 171.59 136.35 111.61 136.35"/>
      <path class="cls-3" d="M283.99,59.85s-7.94,77.79-117.58,76.51"/>
      <path class="cls-3" d="M3.98,59.85s7.94,77.79,117.58,76.51"/>
      <path class="cls-3" d="M60.24,126.34c.08-25.27,6.85-36.11,6.85-36.11"/>
      <path class="cls-3" d="M20.43,98.76c11.25-30.57,18.76-31.08,18.76-31.08"/>
      <path class="cls-3" d="M222.99,128.09c-.08-25.27-6.85-36.11-6.85-36.11"/>
      <path class="cls-3" d="M262.81,100.52c-11.25-30.57-18.76-31.08-18.76-31.08"/>
    </g>
  </g>
  <g id="Calque_2" data-name="Calque 2">
    <g>
      <path class="cls-4" d="M105.57,95.09L143.99,14.01l38.42,81.08"/>
      <path class="cls-4" d="M79.11,166.46l-27.64,58.33h54.1"/>
      <path class="cls-5" d="M208.87,166.46l27.64,58.33h-54.1"/>
    </g>
    <g>
      <path class="cls-1" d="M134.39,220.1h1.16v9.34h3.95v1.02h-5.11v-10.37Z"/>
      <path class="cls-1" d="M140.59,220.1h5.74v1.02h-4.59v3.6h4.57v1.02h-4.57v3.7h4.59v1.02h-5.74v-10.37Z"/>
      <path class="cls-1" d="M148.82,227.58c.17,1.72,1.43,2.09,2.07,2.09,1.08,0,2.07-.83,2.07-1.97,0-1.46-1.25-1.78-2.45-2.17-.84-.25-2.65-.79-2.65-2.75-.03-1.83,1.5-2.86,3.08-2.86,1.29,0,2.77.71,2.94,2.68h-1.15c-.13-.67-.46-1.7-1.83-1.7-1.04,0-1.89.7-1.89,1.78-.01,1.26,1.01,1.57,2.58,2.1.98.38,2.52.92,2.52,2.83,0,1.69-1.28,3.04-3.21,3.04-1.74,0-3.18-1.09-3.25-3.07h1.16Z"/>
    </g>
    <g>
      <path class="cls-1" d="M121.53,234.97h3.54c2.13,0,3.12.34,3.82.91,1.1.86,1.85,2.76,1.85,4.78.02,1.2-.24,2.47-.81,3.48-.81,1.44-1.78,1.78-3.03,1.94l3.38,6.65h-1.65l-3.84-7.75h.44c.95,0,2.28-.02,3.01-.91.72-.91,1.03-1.99,1.03-3.26s-.5-2.71-1.34-3.43c-.68-.58-1.52-.65-2.75-.65h-2.13v16.01h-1.52v-17.76Z"/>
      <path class="cls-1" d="M132.44,234.97h1.51v17.76h-1.51v-17.76Z"/>
      <path class="cls-1" d="M135.5,234.97h1.6l4.5,15.19,4.52-15.19h1.6l-5.4,17.76h-1.45l-5.36-17.76Z"/>
      <path class="cls-1" d="M149.26,234.97h7.53v1.75h-6.02v6.17h5.98v1.75h-5.98v6.34h6.02v1.75h-7.53v-17.76Z"/>
      <path class="cls-1" d="M160.05,247.79c.22,2.95,1.87,3.58,2.72,3.58,1.41,0,2.72-1.42,2.72-3.38,0-2.5-1.63-3.05-3.21-3.72-1.1-.43-3.47-1.34-3.47-4.7-.04-3.14,1.96-4.9,4.04-4.9,1.69,0,3.63,1.22,3.86,4.58h-1.51c-.17-1.15-.61-2.9-2.4-2.9-1.36,0-2.48,1.2-2.48,3.05-.02,2.16,1.32,2.69,3.38,3.6,1.29.65,3.3,1.58,3.3,4.85,0,2.9-1.67,5.21-4.2,5.21-2.28,0-4.17-1.87-4.26-5.26h1.52Z"/>
    </g>
    <g>
      <path class="cls-2" d="M70.47,314.71v-42.6h-1.93c-.21-.14-.32-.26-.32-.38,0-.1.11-.21.32-.35h8.64c2.66,0,4.83.92,6.52,2.75s2.53,4.41,2.53,7.73c0,2.03-.29,3.78-.86,5.26-.58,1.47-1.47,2.71-2.68,3.71-.76.62-1.91,1.22-3.45,1.79,1.6.59,2.78,1.18,3.54,1.79,1.21,1,2.13,2.2,2.75,3.62s.94,3.16.94,5.23c0,2.68-.46,5.05-1.38,7.12-.62,1.45-1.65,2.65-3.08,3.62s-3.13,1.45-5.13,1.45h-8.35c-.21-.13-.32-.25-.32-.37s.11-.23.32-.37h1.93ZM76.47,272.14v20.13h1.57c.71,0,1.24-.18,1.58-.53.34-.35.52-.94.52-1.76v-15.27c0-.99-.18-1.67-.53-2.03-.35-.36-1.04-.54-2.07-.54h-1.06ZM76.47,293.03v21.65h.95c.83,0,1.49-.23,1.98-.7s.74-1.1.74-1.9v-17.02c0-.72-.14-1.24-.43-1.55-.29-.31-.73-.47-1.34-.47h-1.89Z"/>
      <path class="cls-2" d="M105.24,288.43v10.81c0,6.23-.99,10.78-2.96,13.65-1.37,1.99-3.08,2.99-5.13,2.99-1.39,0-2.67-.5-3.84-1.49s-2.09-2.46-2.75-4.39c-1.07-3.11-1.61-6.55-1.61-10.34v-12.66c0-5.9.99-10.27,2.96-13.12,1.37-1.97,3.06-2.96,5.07-2.96.98,0,1.88.22,2.7.66s1.55,1.08,2.2,1.93,1.23,1.97,1.74,3.37.88,2.85,1.1,4.35c.35,2.56.53,4.96.53,7.21ZM95.13,311.07c0,1.52.23,2.63.7,3.31.35.49.78.73,1.29.73s.92-.22,1.29-.66.56-1.07.56-1.89v-37.56c0-1.05-.24-1.89-.73-2.52-.33-.45-.75-.67-1.26-.67-.45,0-.84.21-1.17.64-.45.59-.67,1.44-.67,2.55v36.06Z"/>
      <path class="cls-2" d="M108.9,272.11h-1.73c-.21-.12-.32-.24-.32-.38,0-.12.11-.23.32-.35h9.21c2.28,0,4.26.97,5.94,2.92s2.52,4.6,2.52,7.96c0,1.93-.32,3.65-.96,5.16s-1.6,2.75-2.86,3.72c-.76.59-1.94,1.15-3.53,1.7,1.78.53,3.02,1.03,3.72,1.52,1.18.82,2.06,1.81,2.63,2.96.57,1.15.86,2.65.86,4.48v10.72c0,.49.08.83.23,1.02.16.2.36.29.62.29.39,0,.74-.24,1.05-.73.51-.78.83-2.19.97-4.22.02-.35.07-.59.16-.7s.18-.18.28-.18c.12,0,.21.07.29.21.1.16.15.45.15.88,0,2.17-.52,3.84-1.56,5.02s-2.35,1.77-3.93,1.77c-1.4,0-2.46-.36-3.18-1.08s-1.08-1.75-1.08-3.08v-15.5c0-1.33-.33-2.22-.99-2.67-.39-.25-1.3-.38-2.73-.38v21.53h1.44c.16,0,.28.04.37.11s.13.16.13.25-.04.18-.13.25-.21.11-.37.11h-9.23c-.12,0-.21-.03-.29-.1-.08-.07-.12-.16-.12-.27s.04-.2.12-.27c.08-.07.18-.1.29-.1h1.73v-42.6ZM114.97,272.14v20.27h1.42c.68,0,1.23-.23,1.66-.7s.64-1.15.64-2.05v-15.21c0-.88-.16-1.48-.46-1.82-.31-.33-.92-.5-1.83-.5h-1.42Z"/>
      <path class="cls-2" d="M131.58,272.11h-1.9c-.2-.14-.3-.25-.3-.35,0-.14.1-.26.29-.38h16.67v16.32c-.11.2-.22.29-.34.29s-.19-.03-.24-.1c-.05-.07-.08-.35-.1-.83-.14-3.24-.65-6.25-1.53-9.04-.88-2.79-1.73-4.55-2.56-5.29-.43-.39-1.16-.58-2.18-.58h-1.82v20.6c1.11-.12,2.02-.7,2.72-1.76.94-1.43,1.41-3.61,1.41-6.56v-2.29c0-.1.03-.18.1-.25s.15-.1.25-.1.18.03.23.1.09.15.09.25v21.77c0,.1-.03.18-.09.25s-.14.1-.23.1-.18-.03-.25-.1-.1-.15-.1-.25v-2.11c0-2.89-.53-5.19-1.58-6.88-.62-.98-1.28-1.46-1.96-1.46-.18,0-.31.06-.41.18-.12.14-.18.35-.18.64v20.42h.94c.8,0,1.59-.3,2.37-.89s1.51-1.63,2.2-3.11c.68-1.47,1.21-3.08,1.58-4.82.61-2.81.91-5.01.91-6.59v-1.93c.14-.21.26-.32.38-.32s.21.03.28.09.1.14.1.23v18.11h-16.64c-.14,0-.24-.04-.32-.11s-.12-.16-.12-.25c0-.11.04-.2.12-.27.08-.07.19-.1.32-.1h1.88v-42.6ZM137.58,259.63h5.83l-5.33,9.46c-.14.25-.3.38-.5.38l-.23-.09c-.08-.12-.12-.25-.12-.41l.35-9.35Z"/>
      <path class="cls-2" d="M155.12,271.99h3.23l5.22,42.71h1.32c.21.13.32.25.32.37s-.11.23-.32.37h-8.82c-.1,0-.18-.03-.23-.1-.06-.07-.09-.16-.09-.27s.03-.2.09-.27c.06-.07.14-.1.23-.1h1.41l-.76-8.35h-5.38l-.61,4.72c-.02.25-.03.52-.03.79,0,.86.16,1.51.49,1.95s.77.71,1.34.81l.47.15c.08.08.12.18.12.29s-.03.21-.1.28-.15.1-.25.1h-5.01c-.1,0-.18-.03-.25-.1s-.1-.16-.1-.28.03-.21.09-.29l.35-.12c.57-.08,1.01-.33,1.32-.76.47-.68.8-1.82,1-3.4l4.96-38.5ZM154.36,282.92l-2.92,22.68h5.15l-2.23-22.68Z"/>
      <path class="cls-2" d="M168.08,272.11h-1.82c-.21-.14-.32-.25-.32-.35,0-.12.11-.24.32-.38h9.76c.1,0,.18.03.25.1s.1.15.1.25c0,.12-.03.21-.1.28s-.15.1-.25.1h-1.93v42.57h1.24c.88,0,1.66-.25,2.32-.75.67-.5,1.31-1.53,1.94-3.09.92-2.3,1.59-4.82,2.01-7.54.42-2.72.64-4.47.66-5.23.02-.27.06-.45.11-.53l.22-.09.22.09c.08.08.11.17.11.26l-.23,17.64h-16.46c-.1,0-.18-.03-.25-.1-.07-.07-.1-.16-.1-.27s.03-.2.1-.27c.07-.07.15-.1.25-.1h1.84v-42.6Z"/>
      <path class="cls-2" d="M186.45,272.11h-1.9c-.2-.14-.3-.25-.3-.35,0-.14.1-.26.29-.38h16.67v16.32c-.11.2-.22.29-.34.29s-.19-.03-.24-.1c-.05-.07-.08-.35-.1-.83-.14-3.24-.65-6.25-1.53-9.04-.88-2.79-1.73-4.55-2.56-5.29-.43-.39-1.16-.58-2.18-.58h-1.82v20.6c1.11-.12,2.02-.7,2.72-1.76.94-1.43,1.41-3.61,1.41-6.56v-2.29c0-.1.03-.18.1-.25s.15-.1.25-.1.18.03.23.1.09.15.09.25v21.77c0,.1-.03.18-.09.25s-.14.1-.23.1-.18-.03-.25-.1-.1-.15-.1-.25v-2.11c0-2.89-.53-5.19-1.58-6.88-.62-.98-1.28-1.46-1.96-1.46-.18,0-.31.06-.41.18-.12.14-.18.35-.18.64v20.42h.94c.8,0,1.59-.3,2.37-.89s1.51-1.63,2.2-3.11,1.21-3.08,1.58-4.82c.61-2.81.91-5.01.91-6.59v-1.93c.14-.21.26-.32.38-.32s.21.03.28.09.1.14.1.23v18.11h-16.64c-.14,0-.24-.04-.32-.11s-.12-.16-.12-.25c0-.11.04-.2.12-.27.08-.07.19-.1.32-.1h1.88v-42.6Z"/>
      <path class="cls-2" d="M206.81,312.89c-.66.47-1.34,1.05-2.04,1.74s-1.12,1.04-1.27,1.04c-.06,0-.11-.03-.15-.09s-.06-.19-.06-.38v-18.4c0-.08.03-.14.08-.19s.11-.07.17-.07c.1,0,.19.06.27.18.14.18.21.37.21.59v1.26c0,2.44.38,5.22,1.14,8.35.76,3.12,1.75,5.35,2.98,6.68.6.66,1.3,1,2.1,1,.92,0,1.71-.43,2.39-1.3s1.02-2.18,1.02-3.94-.31-3.46-.94-5.33c-.82-2.5-2.64-6.5-5.45-12.01-1.76-3.44-2.88-5.92-3.35-7.46s-.72-3.02-.72-4.47c0-2.87.68-5.12,2.03-6.74,1.35-1.62,2.9-2.43,4.63-2.43,1.48,0,2.82.79,4.01,2.37.97-.53,1.92-1.18,2.84-1.96.31-.27.52-.41.61-.41.04,0,.08.02.12.06.04.08.06.21.06.41v15.91c0,.21-.05.39-.15.53-.06.08-.14.12-.23.12-.12,0-.2-.05-.26-.15s-.18-.8-.35-2.11c-.8-6.07-1.86-10.1-3.18-12.07-.78-1.13-1.67-1.7-2.66-1.7-.74,0-1.38.33-1.93,1s-.82,1.64-.82,2.93c0,2.32,1.33,6.14,3.98,11.46l2.58,5.19c1.78,3.57,2.96,6.41,3.54,8.51s.88,3.98.88,5.64c0,2.89-.71,5.16-2.14,6.8s-3.1,2.46-5.01,2.46c-2.07,0-3.72-1-4.95-2.99Z"/>
    </g>
  </g>
</svg>