<?xml version="1.0" encoding="UTF-8"?>
<svg xmlns="http://www.w3.org/2000/svg" width="101.59mm" height="115.85mm" viewBox="0 0 287.97 328.39">
  <defs>
    <style>
      .cls-1 {
        stroke: #1d1d1b;
        stroke-width: 8px;
      }

      .cls-1, .cls-2, .cls-3 {
        fill: none;
        stroke-miterlimit: 10;
      }

      .cls-4 {
        font-size: 24px;
      }

      .cls-4, .cls-5 {
        fill: #f6f6f6;
        font-family: ITCAvantGardeStd-Bk, 'ITC Avant Garde Gothic Std';
      }

      .cls-5 {
        font-size: 14px;
      }

      .cls-6 {
        fill: #fff;
        font-family: Onyx, Onyx;
        font-size: 60px;
      }

      .cls-2 {
        stroke: #dfba42;
      }

      .cls-2, .cls-3 {
        stroke-width: 12px;
      }

      .cls-3 {
        stroke: #e0ba42;
      }
    </style>
  </defs>
  <g id="Calque_1" data-name="Calque 1">
    <g>
      <polygon class="cls-1" points="111.61 136.35 142.11 189.21 171.59 136.35 111.61 136.35"/>
      <path class="cls-1" d="M283.99,59.85s-7.94,77.79-117.58,76.51"/>
      <path class="cls-1" d="M3.98,59.85s7.94,77.79,117.58,76.51"/>
      <path class="cls-1" d="M60.24,126.34c.08-25.27,6.85-36.11,6.85-36.11"/>
      <path class="cls-1" d="M20.43,98.76c11.25-30.57,18.76-31.08,18.76-31.08"/>
      <path class="cls-1" d="M222.99,128.09c-.08-25.27-6.85-36.11-6.85-36.11"/>
      <path class="cls-1" d="M262.81,100.52c-11.25-30.57-18.76-31.08-18.76-31.08"/>
    </g>
  </g>
  <g id="Calque_2" data-name="Calque 2">
    <g>
      <path class="cls-2" d="M105.57,95.09L143.99,14.01l38.42,81.08"/>
      <path class="cls-2" d="M79.11,166.46l-27.64,58.33h54.1"/>
      <path class="cls-3" d="M208.87,166.46l27.64,58.33h-54.1"/>
    </g>
    <text class="cls-5" transform="translate(133.34 230.47)"><tspan x="0" y="0">LES</tspan></text>
    <text class="cls-4" transform="translate(120.3 252.74) scale(.77 1)"><tspan x="0" y="0">RIVES</tspan></text>
    <text class="cls-6" transform="translate(68.21 315.44)"><tspan x="0" y="0">BORÉALES</tspan></text>
  </g>
</svg>